# xmcd CD database file
#
# Track frame offsets:
#	150
#	41954
#	58054
#	71044
#	94651
#	106649
#	133099
#	149472
#	168293
#	176485
#	199185
#	205819
#	218998
#	241948
#	256643
#	268193
#	299297
#	307548
#	309985
#
# Disc length: 4182 seconds
#
# Revision: 0
# Processed by: cddbd v1.5.2PL0 Copyright (c) Steve Scherf et al.
# Submitted via: CDex 1.51
#
DISCID=16105413
DTITLE=Thomas Dausgaard - Berlioz: Lélio, ou le retour à la vie - Le carnaval romain - Hélène 
DYEAR=2007
DGENRE=Clasica
TTITLE0=Le carnaval romain, Op. 9: Allegro assai con fuoco - Andante sostenuto - Tempo I Allegro vivace
TTITLE1=Helene, Op. 2, No. 2 (version for male choir and orchestra): Ballade - Allegro
TTITLE2=Lelio, ou Le Retour a la vie, Op. 14bis: Lelio: "Dieu! je vis encore"
TTITLE3=Lelio, ou Le Retour a la vie, Op. 14bis: Le Pecheur. Ballade de Goethe. Andantino
TTITLE4=Lelio, ou Le Retour a la vie, Op. 14bis: Lelio: "Etrange persistance d'un souvenir!"
TTITLE5=Lelio, ou Le Retour a la vie, Op. 14bis: Choeur d'ombres. Largo misterioso
TTITLE6=Lelio, ou Le Retour a la vie, Op. 14bis: Lelio: "O Shakespeare! Shakespeare!"
TTITLE7=Lelio, ou Le Retour a la vie, Op. 14bis: Chanson de brigands. Allegro marcato con impeto
TTITLE8=Lelio, ou Le Retour a la vie, Op. 14bis: Lelio: "Comme mon esprit flotte incertain!"
TTITLE9=Lelio, ou Le Retour a la vie, Op. 14bis: Chant de bonheur - Hymne. Larghetto un poco lento
TTITLE10=Lelio, ou Le Retour a la vie, Op. 14bis: Lelio: "Oh! que ne puis-je la trouver"
TTITLE11=Lelio, ou Le Retour a la vie, Op. 14bis: La Harpe eolienne - Souvenirs. Larghetto
TTITLE12=Lelio, ou Le Retour a la vie, Op. 14bis: Lelio: "Mair pourquoi m'abandonner a ces dangereuses illusions?"
TTITLE13=Lelio, ou Le Retour a la vie, Op. 14bis: Introdution. Andante non troppo lento
TTITLE14=Lelio, ou Le Retour a la vie, Op. 14bis: La Tempete. Allegro assai, un peu retenu en commencant 
TTITLE15=Lelio, ou Le Retour a la vie, Op. 14bis: L'Action. Un peu moins vite 
TTITLE16=Lelio, ou Le Retour a la vie, Op. 14bis: Le Denoument. Tempo I piu animato con fuoco - Presto
TTITLE17=Lelio, ou Le Retour a la vie, Op. 14bis: Lelio: "Assez pour aujord'hui"
TTITLE18=Lelio, ou Le Retour a la vie, Op. 14bis: Coda. Allegro meno mosso
EXTD=YEAR: 2007
EXTT0=
EXTT1=
EXTT2=
EXTT3=
EXTT4=
EXTT5=
EXTT6=
EXTT7=
EXTT8=
EXTT9=
EXTT10=
EXTT11=
EXTT12=
EXTT13=
EXTT14=
EXTT15=
EXTT16=
EXTT17=
EXTT18=
PLAYORDER=
